<svg xmlns="http://www.w3.org/2000/svg" width="412" height="412" viewBox="0 0 412 412" version="1.1">
	<path d="M 223.333 68.731 C 238.802 84.314, 240.624 85.830, 245.833 87.455 C 263.385 92.931, 279.792 103.427, 295 118.910 C 311.295 135.498, 320.149 150.513, 326.373 172.112 C 334.580 200.588, 331.645 233.849, 318.575 260.490 C 316.689 264.334, 315.226 267.555, 315.323 267.647 C 315.420 267.739, 323.150 265.799, 332.500 263.336 C 343.645 260.400, 350.055 258.214, 351.111 256.989 C 353.021 254.775, 357.358 237.936, 359.058 226.136 C 360.795 214.083, 359.723 185.068, 357.126 173.829 C 352.335 153.101, 343.443 132.991, 331.678 116.277 C 323.764 105.033, 306.967 88.236, 295.723 80.322 C 272.236 63.789, 243.812 53.613, 217.500 52.317 L 206.500 51.775 223.333 68.731 M 166.500 56.965 C 139.416 64.040, 117.185 76.848, 97.012 97 C 75.591 118.397, 61.556 144.053, 54.824 174.119 C 52.784 183.233, 52.501 187.124, 52.509 206 C 52.518 228.960, 53.365 235.324, 58.695 252.500 C 61.223 260.645, 70.805 282, 71.933 282 C 72.274 282, 75.280 271.791, 78.613 259.312 L 84.674 236.625 83.335 230.562 C 81.211 220.949, 80.549 201.622, 81.959 190.421 C 88.099 141.639, 121.794 101.472, 169.115 86.523 C 178.031 83.707, 193.576 81.016, 200.986 81.006 L 205.472 81 192 67.500 C 184.590 60.075, 178.297 54.020, 178.014 54.045 C 177.731 54.071, 172.550 55.384, 166.500 56.965 M 211 173 C 211 211.500, 211.343 243, 211.762 243 C 212.181 243, 219.606 235.907, 228.262 227.239 L 244 211.477 244 157.239 L 244 103 227.500 103 L 211 103 211 173 M 157 187.696 L 157 229.392 160.750 225.957 C 162.813 224.068, 166.348 220.799, 168.607 218.693 L 172.715 214.864 180.921 221.932 C 185.434 225.819, 189.323 229, 189.564 229 C 189.804 229, 190 210.325, 190 187.500 L 190 146 173.500 146 L 157 146 157 187.696 M 102.761 233.240 L 102.500 276.481 100.305 273.014 C 97.711 268.916, 98.382 267.527, 92.595 288.988 L 88.149 305.475 91.549 309.625 C 93.419 311.908, 98.223 316.697, 102.225 320.268 C 124.665 340.293, 151.165 353.167, 180.129 358.114 C 190.781 359.934, 195.070 360.152, 211 359.685 C 224.385 359.293, 231.897 358.587, 238.171 357.132 C 271.848 349.323, 301.740 331.627, 322.693 307.094 C 330.533 297.915, 339.540 284.680, 338.242 284.247 C 337.725 284.075, 327.313 286.611, 315.104 289.883 C 294.327 295.452, 292.636 296.080, 288.703 299.696 C 273.980 313.230, 252.615 323.922, 231 328.573 C 219.605 331.025, 198.470 331.522, 186.844 329.613 C 176.492 327.913, 163.907 324.248, 155.005 320.343 C 148.768 317.606, 133.945 308.888, 134.106 308.051 C 134.273 307.190, 172.377 270.707, 173.500 270.334 C 174.050 270.152, 182.767 277.187, 192.871 285.968 L 211.243 301.933 250.371 263.494 L 289.500 225.055 299.250 234.759 L 309 244.462 309 217.231 L 309 190 281.769 190 L 254.538 190 264.263 199.762 L 273.988 209.524 242.595 240.905 L 211.201 272.287 192.226 256.243 L 173.251 240.199 145.578 267.229 L 117.905 294.260 115.319 291.880 C 113.896 290.571, 110.963 287.285, 108.801 284.577 L 104.869 279.654 120.434 264.066 L 136 248.477 136 219.239 L 136 190 119.511 190 L 103.021 190 102.761 233.240" stroke="none" fill="black" fill-rule="evenodd"/>
</svg>